<svg version="1.2" xmlns="http://www.w3.org/2000/svg" viewBox="0 0 800 800" width="800" height="800">
	<title>Gruen-logo_lmu2-svg</title>
	<style>
		.s0 { fill: #30854e } 
		.s1 { fill: #ffffff } 
	</style>
	<g id="layer1">
		<path id="rect3503" class="s0" d="m810.3-8.7v824.4h-821.6v-824.4z"/>
		<path id="text3509" class="s1" d="m67.3 535.7v-270.4h29v246h77.9v24.4zm131.6 0v-270.4h79.7l47.9 184.4 47.3-184.4h79.9v270.4h-49.5v-212.8l-52.3 212.8h-51.3l-52.2-212.8v212.8zm442.8-270.4h92.4v157.4q0 24-7.2 45.3-7.1 21.3-22.4 37.2-15.2 16-32 22.4c-15.5 6-34.1 8.1-55.8 8.1-12.6 0-26.3 0-41.2-1.8q-22.3-2.8-37.3-11-15-8.2-27.4-23.3-12.4-15.1-17-31.2-7.4-25.8-7.4-45.7v-157.4h92.3v161.3c0.7 63.2 64.6 58 63 0z"/>
	</g>
</svg>