<svg xmlns="http://www.w3.org/2000/svg" viewBox="0 0 566.79 320.9"><title>MuenchenerHyp_ohne_Claim_RGB</title><path d="M174.16,153.08c1.7-7.81,10.52-7.72,10.52-7.72s-28-41.55,25.07-67.19c-51.93,5.17-50.52,58.75-35.59,74.91" fill="#004461"/><path d="M261.05,74.49c-8.48-22.85-72.16-6.3-56.63,60.35,1.38-5.22,11.11-12.39,25.21-8.74C214,76.3,250.08,70.87,261.05,74.49" fill="#004461"/><path d="M193.22,181.63l4.35,10.82c28.45-14.38,85.78-12.65,85.78-12.65V166s-66.63-1.07-90.13,15.66" fill="#004461"/><path d="M242.28,161.88c-3.67,1.24-22,3.71-27.31,4.6-9.93.34-19.7-25.52,5.56-31.18s29.87,17.94,21.75,26.58" fill="#004461"/><path d="M203.27,170.36c-4.06,2.21-8.33,3.85-10.38,5.07-6.46,1.94-18-16.32-11-21.5,9.22-6.26,24.17,8.54,21.43,16.43" fill="#004461"/><path d="M264,159.43h19.36v-35.2c-31.87.29-39.46,22.36-19.36,35.2" fill="#004461"/><path d="M273.28,59c-16.53,34.55-16.82,65.73-15.75,65.22,7.48-6.12,14.94-8,25.81-8.17V63.36c-4-.09-7.15-2.37-10.06-4.41" fill="#004461"/><polyline points="279.96 6.98 279.96 0 283.34 0 283.34 27.04 279.96 27.04 279.96 13.74 273.55 13.74 273.55 6.97 279.96 6.98" fill="#004461"/><path d="M269.85,44.1c0,6.63,6,12,13.49,12.2V31.9c-7.48.19-13.49,5.57-13.49,12.2" fill="#004461"/><path d="M392.48,153.08c-1.7-7.81-10.53-7.72-10.53-7.72s28-41.55-25.06-67.19c51.92,5.17,50.53,58.75,35.59,74.91" fill="#e98d00"/><path d="M305.58,74.49c8.48-22.85,72.17-6.3,56.64,60.35-1.39-5.22-11.1-12.39-25.21-8.74,15.69-49.8-20.46-55.23-31.43-51.61" fill="#e98d00"/><path d="M373.46,181.63l-4.37,10.82c-28.42-14.38-85.74-12.65-85.74-12.65V166s66.6-1.07,90.11,15.66" fill="#e98d00"/><path d="M324.35,161.88c3.68,1.24,22,3.71,27.31,4.6,9.95.34,19.7-25.52-5.55-31.18s-29.85,17.94-21.76,26.58" fill="#e98d00"/><path d="M363.38,170.36c4,2.21,8.31,3.85,10.36,5.07,6.46,1.94,18-16.32,11.05-21.5-9.21-6.26-24.17,8.54-21.41,16.43" fill="#e98d00"/><path d="M302.69,159.43H283.34v-35.2c31.86.29,39.45,22.36,19.35,35.2" fill="#e98d00"/><path d="M293.39,59c16.54,34.55,16.8,65.73,15.74,65.22-7.47-6.12-14.94-8-25.79-8.17V63.36c4-.09,7.14-2.37,10.05-4.41" fill="#e98d00"/><polyline points="286.7 6.98 286.7 0 283.34 0 283.34 27.04 286.7 27.04 286.71 13.74 293.13 13.74 293.13 6.97 286.7 6.98" fill="#e98d00"/><path d="M296.79,44.1c0,6.63-6,12-13.45,12.2V31.9c7.46.19,13.45,5.57,13.45,12.2" fill="#e98d00"/><path d="M0,237.75H13.53l17.59,51.56h.19L49,237.75H62.06V301.2H53V246.39h-.18L34.16,301.2H26.43L7.82,246.39H7.65V301.2H0Z" fill="#004461"/><path d="M101.85,290.79h-.19c-1.47,3.22-5.61,11.41-15.28,11.41-7.74,0-11-6.44-11-12.79v-32h9.3v27.39c0,5.52.82,10.49,5.52,10.49,9.21,0,11.79-14.36,11.79-19.78v-18.1h9.3V301.2h-9.39Zm-22.47-51.3h10v9.28h-10Zm17.77,0h10v9.28h-10Z" fill="#004461"/><path d="M124.24,257.42h9.3v10.39h.19c1.47-3.22,5.71-11.4,15.38-11.4,7.73,0,11,6.43,11,12.78v32h-9.29V273.77c0-5.51-.83-10.46-5.53-10.46-9.21,0-11.79,14.32-11.79,19.74V301.2h-9.3Z" fill="#004461"/><path d="M203.53,300a34.26,34.26,0,0,1-11.7,2.2c-13.91,0-22-8.37-22-24.66,0-13,6-21.13,18.6-21.13,11.79,0,15.75,6.25,15.75,15.25h-9.76c0-5.23-.55-11.39-6.35-11.39-5.34,0-8.11,6.25-8.11,14.15,0,10.66,4.52,22.91,15.75,22.91a21.4,21.4,0,0,0,7.83-1.66Z" fill="#004461"/><path d="M212.74,237.75H222v30.06h.19c1.47-3.22,5.71-11.4,15.37-11.4,7.74,0,11.05,6.43,11.05,12.78v32h-9.3V273.77c0-5.51-.83-10.46-5.52-10.46-9.21,0-11.79,14.32-11.79,19.74V301.2h-9.3Z" fill="#004461"/><path d="M292.58,299.72a30.62,30.62,0,0,1-12.8,2.48c-12.15,0-21.91-7.18-21.91-24.85,0-12.11,4.88-20.94,18.69-20.94,14.19,0,16.86,9.47,16.86,17.91H267.17c0,8.64,3.87,23,17,23a19.52,19.52,0,0,0,8.37-1.84ZM284.3,270.1c0-3.4-1.2-9.83-8.11-9.83-7.18,0-8.56,7.35-8.75,9.83Z" fill="#004461"/><path d="M302.8,257.42h9.31v10.39h.18c1.47-3.22,5.71-11.4,15.38-11.4,7.73,0,11.05,6.43,11.05,12.78v32h-9.3V273.77c0-5.51-.83-10.46-5.53-10.46-9.21,0-11.78,14.32-11.78,19.74V301.2H302.8Z" fill="#004461"/><path d="M382.73,299.72a30.72,30.72,0,0,1-12.8,2.48C357.77,302.2,348,295,348,277.35c0-12.11,4.88-20.94,18.69-20.94,14.19,0,16.86,9.47,16.86,17.91H357.31c0,8.64,3.87,23,17,23a19.6,19.6,0,0,0,8.39-1.84Zm-8.29-29.62c0-3.4-1.2-9.83-8.11-9.83-7.18,0-8.56,7.35-8.74,9.83Z" fill="#004461"/><path d="M393.57,257.42h9.31v11.12h.18c2.95-5.88,6.17-11.49,14.19-12.13v9.65c-8.94.28-14.37,3.31-14.37,15.06V301.2h-9.31Z" fill="#004461"/><path d="M429.69,237.75h10.13v27.39h23.11V237.75h10.13V301.2H462.93v-30H439.82v30H429.69Z" fill="#004461"/><path d="M498,301.66l-16.85-44.24h9.68l11.5,31.25h.19l10.31-31.25h8.75L499,320.9h-7.46Z" fill="#004461"/><path d="M529.4,257.42h9.3v7.17h.19c1.28-2.94,4.33-8.18,11.32-8.18,12.71,0,16.58,10.29,16.58,22.88,0,13.16-4.88,22.91-16.58,22.91-7.37,0-10-4.69-11.32-7.09h-.19V320.9h-9.3Zm18.42,39.45c7.27,0,8.84-9.95,8.84-17.58,0-7.26-1.39-17-8.84-17-7.65,0-8.75,9.74-8.75,17C539.07,286.92,539.81,296.87,547.82,296.87Z" fill="#004461"/></svg>