<?xml version="1.0" encoding="utf-8"?>
<!-- Generator: Adobe Illustrator 24.0.0, SVG Export Plug-In . SVG Version: 6.00 Build 0)  -->
<svg version="1.1" id="Artwork" xmlns="http://www.w3.org/2000/svg" xmlns:xlink="http://www.w3.org/1999/xlink" x="0px" y="0px"
	 viewBox="0 0 583.94 283.6" style="enable-background:new 0 0 583.94 283.6;" xml:space="preserve">
<style type="text/css">
	.st0{fill:#003963;}
	.st1{fill:#7D9DB1;}
</style>
<g>
	<path class="st0" d="M159.97,21.11c37.34,0,71.32,14.39,96.7,37.93c0.41,0.48,1.09,0.06,0.5-0.63C231.29,23,189.46,0,142.25,0
		C63.67,0-0.03,63.7-0.03,142.28c0,38.31,15.15,73.08,39.77,98.65c0.45,0.51,1.15,0.3,0.55-0.58c-14.3-22.19-22.6-48.6-22.6-76.95
		C17.7,84.81,81.4,21.11,159.97,21.11z"/>
	<path class="st0" d="M170.92,280.83c-21.34-0.44-42.83-6.66-62.02-19.18c-54.68-35.67-70.09-108.9-34.42-163.58
		c16.83-25.8,42.04-42.86,69.71-49.93c0.62-0.12,0.73-0.81-0.27-0.75c-36.16,2.12-70.87,20.76-92.18,53.43
		C16.07,155.49,31.48,228.73,86.16,264.4c24.27,15.83,52.2,21.59,78.88,18.33c2.04-0.33,4.06-0.7,6.06-1.11
		C171.74,281.52,171.98,280.83,170.92,280.83z"/>
	<path class="st0" d="M268.61,196.77c-2.32,4.13-4.94,8.12-7.86,11.92c-7.03,9.16-15.76,17.25-26.09,23.78
		c-47.07,29.78-109.37,15.76-139.15-31.32c-14.92-23.59-18.84-51.01-13.11-76.24c0.22-0.78-0.36-1.07-0.78-0.12
		c-14.2,30.16-13.16,66.71,5.98,96.97c29.78,47.07,92.08,61.1,139.15,31.32c4.46-2.82,8.62-5.94,12.48-9.3
		c14.59-12.73,24.8-29.05,30.15-46.77C269.6,196.32,269.05,195.98,268.61,196.77z"/>
	<g>
		<g>
			<path class="st0" d="M238.56,176.51L236,117.43l-31.75,59.08H190.2l-15.13-60.99l-19.11,60.99h-23.71l30.13-92.37h24.59
				l14.46,58.67l31.34-58.67h23.91l4.33,92.37H238.56z"/>
			<path class="st0" d="M281.72,176.51l10.81-73.56h-29.45l2.84-18.81h82.26l-2.7,18.81h-29.58l-10.94,73.56H281.72z"/>
			<path class="st0" d="M377.21,84.13l-7.02,48.29c-1.22,8.46-2.71,24.55,19.45,24.55c10.54,0,20.53-4.5,22.83-19.78l7.97-53.06
				h23.23l-8.1,56.47c-3.65,25.1-21.34,37.1-45.79,37.1c-35.7,0-43.96-22.1-43.96-33.97c0-1.91,0.27-7.64,1.22-13.78l6.9-45.83
				H377.21z"/>
		</g>
	</g>
	<path class="st1" d="M315.94,204.17h0.1l1.84,15.4h-8.06L315.94,204.17z M321.04,196.87h-7.85l-17.03,35.24h8.16l3.37-7.6h10.81
		l1.07,7.6h7.6L321.04,196.87z"/>
	<path class="st1" d="M337.58,217.53c1.02-2.91,2.55-4.23,4.79-4.23c2.35,0,3.72,1.73,3.31,4.23H337.58z M352.06,221.5
		c1.63-7.39-2.29-12.95-9.54-12.95c-6.99,0-12.54,5.66-12.54,12.75c0,6.83,4.49,11.27,11.52,11.27c2.4,0,5.2-0.61,8.06-1.68
		l1.22-5.76c-3.77,1.53-6.42,2.35-8.57,2.35c-3.31,0-5.66-2.19-5.3-5.97H352.06z"/>
	<path class="st1" d="M365.01,212.27l0.1,0.1c2.14-2.65,3.93-3.82,5.61-3.82c1.38,0,2.55,0.71,4.13,2.55l-3.21,6.38
		c-1.17-1.73-2.14-2.5-3.26-2.5c-1.63,0-3.42,1.83-4.18,3.37l-1.94,13.77h-6.88l3.26-23.15h6.88L365.01,212.27z"/>
	<path class="st1" d="M392.49,219.26c0,3.21-1.99,7.7-5.97,7.7c-2.04,0-4.59-1.63-4.59-5.15c0-2.35,1.43-7.65,5.92-7.65
		C390.65,214.16,392.49,216.2,392.49,219.26z M399.63,219.46c0-6.63-4.84-10.91-11.47-10.91c-7.34,0-13.36,5.81-13.36,12.85
		c0,6.27,5.1,11.17,11.68,11.17C393.92,232.57,399.63,226.86,399.63,219.46z"/>
	<path class="st1" d="M443.84,203.15h-14.33l-1.17,8.21h12.6l-0.82,5.81h-12.6l-1.28,9.13h18.05l-0.82,5.81h-25.45l4.9-34.78h21.72
		L443.84,203.15z"/>
	<path class="st1" d="M456.89,211.56c2.81-2.14,5.1-3.01,7.91-3.01c5.35,0,6.78,4.49,6.12,9.23l-1.99,14.33h-6.88l1.94-13.82
		c0.31-2.24-0.21-4.64-2.04-4.64c-1.58,0-3.47,1.07-5.81,3.57l-2.09,14.89h-6.88l3.26-23.15h6.88L456.89,211.56z"/>
	<path class="st1" d="M488.87,216.91c0,2.4-0.77,5-3.78,5c-1.99,0-3.21-1.17-3.21-3.21c0-3.31,1.33-5.1,3.77-5.1
		C487.65,213.6,488.87,214.87,488.87,216.91z M498.76,208.96h-12.95c-6.58,0-10.25,4.49-10.25,8.72c0,2.91,1.28,5.05,4.03,6.68
		c-1.58,0.41-2.19,0.66-2.96,1.17c-1.07,0.71-1.73,1.94-1.73,3.11c0,1.68,1.28,3.37,3.21,4.28c-3.88,1.22-5.71,2.96-5.71,5.2
		c0,2.55,2.14,5.71,11.02,5.71c9.43,0,11.93-3.72,11.93-7.55c0-8.82-13.97-6.22-13.97-8.87c0-0.97,0.87-1.22,4.18-1.22
		c6.63,0,9.69-4.33,9.69-8.46c0-1.33-0.2-2.24-0.87-3.67h3.72L498.76,208.96z M482.65,234.3c4.13,0.92,6.27,1.17,6.27,2.91
		c0,1.58-1.53,2.19-5.41,2.19c-3.57,0-5.1-0.76-5.1-2.4C478.42,235.73,479.49,234.71,482.65,234.3z"/>
	<path class="st1" d="M507.12,232.11h-6.88l3.26-23.15h6.88L507.12,232.11z M511.3,202.53c0,1.99-1.58,3.57-3.57,3.57
		c-1.99,0-3.57-1.58-3.57-3.57c0-1.99,1.58-3.57,3.57-3.57C509.72,198.96,511.3,200.54,511.3,202.53z"/>
	<path class="st1" d="M523.29,211.56c2.8-2.14,5.1-3.01,7.9-3.01c5.35,0,6.78,4.49,6.12,9.23l-1.99,14.33h-6.88l1.94-13.82
		c0.3-2.24-0.21-4.64-2.04-4.64c-1.58,0-3.47,1.07-5.81,3.57l-2.09,14.89h-6.88l3.26-23.15h6.88L523.29,211.56z"/>
	<path class="st1" d="M549.04,217.53c1.02-2.91,2.55-4.23,4.79-4.23c2.35,0,3.72,1.73,3.31,4.23H549.04z M563.52,221.5
		c1.63-7.39-2.29-12.95-9.54-12.95c-6.99,0-12.54,5.66-12.54,12.75c0,6.83,4.49,11.27,11.53,11.27c2.4,0,5.2-0.61,8.06-1.68
		l1.22-5.76c-3.77,1.53-6.43,2.35-8.57,2.35c-3.31,0-5.66-2.19-5.3-5.97H563.52z"/>
	<path class="st1" d="M583.41,216.1c-2.5-1.27-5.51-1.94-6.68-1.94c-0.92,0-1.53,0.41-1.53,1.02c0,2.55,7.7,4.49,7.7,10.1
		c0,4.23-3.57,7.24-8.67,7.24c-2.75,0-5.1-0.61-8.01-2.09l0.97-5.15c1.94,0.71,4.13,1.63,6.32,1.63c1.38,0,2.24-0.51,2.24-1.27
		c0-2.5-7.75-5-7.75-9.59c0-4.44,3.57-7.5,8.67-7.5c2.45,0,4.64,0.61,7.29,2.09L583.41,216.1z"/>
</g>
</svg>
